<?xml version="1.0" encoding="UTF-8" standalone="no"?>
<svg width="24px" height="24px" viewBox="0 0 24 24" version="1.1" xmlns="http://www.w3.org/2000/svg" xmlns:xlink="http://www.w3.org/1999/xlink">
	<g fill="#fff">
		<polygon points="11 8.75735931 7.75735931 12 6.34314575 10.5857864 12 4.92893219 17.6568542 10.5857864 16.2426407 12 13 8.75735931 13 19 11 19 11 8.75735931"></polygon>
		<path d="M12,23 C18.0751322,23 23,18.0751322 23,12 C23,5.92486775 18.0751322,1 12,1 C5.92486775,1 1,5.92486775 1,12 C1,18.0751322 5.92486775,23 12,23 L12,23 L12,23 L12,23 Z M12,21 C16.9705627,21 21,16.9705627 21,12 C21,7.02943725 16.9705627,3 12,3 C7.02943725,3 3,7.02943725 3,12 C3,16.9705627 7.02943725,21 12,21 L12,21 L12,21 L12,21 Z" fill-rule="evenodd"></path>
	</g>
</svg>